<svg width="27" height="28" viewBox="0 0 27 28" fill="none" xmlns="http://www.w3.org/2000/svg">
<path d="M13.6286 3.89648C12.4151 3.89648 11.4222 4.88934 11.4222 6.10283C11.4222 7.31633 12.4151 8.30918 13.6286 8.30918C14.8421 8.30918 15.8349 7.31633 15.8349 6.10283C15.8349 4.88934 14.8421 3.89648 13.6286 3.89648ZM13.6286 19.3409C12.4151 19.3409 11.4222 20.3338 11.4222 21.5473C11.4222 22.7608 12.4151 23.7536 13.6286 23.7536C14.8421 23.7536 15.8349 22.7608 15.8349 21.5473C15.8349 20.3338 14.8421 19.3409 13.6286 19.3409ZM13.6286 11.6187C12.4151 11.6187 11.4222 12.6116 11.4222 13.8251C11.4222 15.0385 12.4151 16.0314 13.6286 16.0314C14.8421 16.0314 15.8349 15.0385 15.8349 13.8251C15.8349 12.6116 14.8421 11.6187 13.6286 11.6187Z" fill="white" fill-opacity="0.6"/>
</svg>
