<svg width="162" height="52" viewBox="0 0 162 52" fill="none" xmlns="http://www.w3.org/2000/svg">
<path d="M-1.36677e-08 25.5769C-6.11922e-09 11.4512 11.4512 6.11922e-09 25.5769 1.36677e-08L135.731 7.25311e-08C149.857 8.00795e-08 161.308 11.4512 161.308 25.5769C161.308 39.7027 149.857 51.1538 135.731 51.1538L25.5769 51.1538C11.4512 51.1538 -2.12161e-08 39.7027 -1.36677e-08 25.5769Z" fill="#262626" fill-opacity="0.2"/>
<path d="M0.5 25.5769C0.5 11.7273 11.7273 0.5 25.5769 0.5L135.731 0.5C149.58 0.5 160.808 11.7273 160.808 25.5769C160.808 39.4265 149.58 50.6538 135.731 50.6538L25.5769 50.6538C11.7273 50.6538 0.5 39.4265 0.5 25.5769Z" stroke="white" stroke-opacity="0.1"/>
<path d="M33.1521 33.0771L27.5842 33.0771L27.5842 18.335L33.1725 18.335C35.6959 18.335 37.4021 19.8061 37.4021 22.0128C37.4021 23.5453 36.2783 24.9756 34.8582 25.231L34.8582 25.3127C36.8606 25.5681 38.1479 26.978 38.1479 28.9395C38.1479 31.5345 36.2885 33.0771 33.1521 33.0771ZM29.4231 19.9594L29.4231 24.6895L32.1815 24.6895C34.3576 24.6895 35.5427 23.8211 35.5427 22.2274C35.5427 20.7665 34.5415 19.9594 32.7536 19.9594L29.4231 19.9594ZM29.4231 31.4527L32.8762 31.4527C35.0932 31.4527 36.2578 30.5537 36.2578 28.8476C36.2578 27.1415 35.0523 26.2731 32.7025 26.2731L29.4231 26.2731L29.4231 31.4527ZM44.3594 33.261C41.4171 33.261 39.4351 31.1463 39.4351 27.7646C39.4351 24.3728 41.4171 22.2683 44.3594 22.2683C47.2915 22.2683 49.2735 24.3728 49.2735 27.7646C49.2735 31.1463 47.2915 33.261 44.3594 33.261ZM44.3594 31.6979C46.2392 31.6979 47.4652 30.2677 47.4652 27.7646C47.4652 25.2616 46.2392 23.8314 44.3594 23.8314C42.4796 23.8314 41.2434 25.2616 41.2434 27.7646C41.2434 30.2677 42.4796 31.6979 44.3594 31.6979ZM55.4748 33.261C52.5325 33.261 50.5505 31.1463 50.5505 27.7646C50.5505 24.3728 52.5325 22.2683 55.4748 22.2683C58.4069 22.2683 60.3888 24.3728 60.3888 27.7646C60.3888 31.1463 58.4069 33.261 55.4748 33.261ZM55.4748 31.6979C57.3546 31.6979 58.5806 30.2677 58.5806 27.7646C58.5806 25.2616 57.3546 23.8314 55.4748 23.8314C53.595 23.8314 52.3588 25.2616 52.3588 27.7646C52.3588 30.2677 53.595 31.6979 55.4748 31.6979ZM64.0565 27.1721L68.756 22.4521L70.9117 22.4521L66.3041 27.0393L71.0547 33.0771L68.991 33.0771L65.0475 28.1324L64.0565 29.0723L64.0565 33.0771L62.2789 33.0771L62.2789 18.335L64.0565 18.335L64.0565 27.1721ZM80.137 31.749C81.8125 31.749 83.0998 30.5741 83.0998 29.0417L83.0998 28.1733L80.2596 28.347C78.8294 28.4389 78.012 29.0723 78.012 30.0735C78.012 31.085 78.86 31.749 80.137 31.749ZM79.7386 33.261C77.6238 33.261 76.2038 31.984 76.2038 30.0735C76.2038 28.255 77.6034 27.1108 80.0553 26.9678L83.0998 26.7941L83.0998 25.9053C83.0998 24.6078 82.2416 23.8314 80.7705 23.8314C79.4015 23.8314 78.5433 24.475 78.3185 25.5171L76.6022 25.5171C76.7248 23.6781 78.2981 22.2683 80.8113 22.2683C83.3041 22.2683 84.8774 23.6168 84.8774 25.7316L84.8774 33.0771L83.1917 33.0771L83.1917 31.2484L83.1509 31.2484C82.5175 32.4642 81.1689 33.261 79.7386 33.261ZM91.9982 33.0771L91.9982 23.9131L90.5169 23.9131L90.5169 22.4521L91.9982 22.4521L91.9982 21.2671C91.9982 19.2238 92.9483 18.2532 94.9099 18.2532C95.3083 18.2532 95.7374 18.2941 95.9928 18.335L95.9928 19.7755C95.7783 19.7448 95.482 19.7142 95.1857 19.7142C94.2254 19.7142 93.7657 20.225 93.7657 21.2773L93.7657 22.4521L95.9417 22.4521L95.9417 23.9131L93.7759 23.9131L93.7759 33.0771L91.9982 33.0771ZM97.8726 33.0771L97.8726 18.335L99.6503 18.335L99.6503 33.0771L97.8726 33.0771ZM102.143 33.0771L102.143 22.4521L103.921 22.4521L103.921 33.0771L102.143 33.0771ZM103.032 20.6643C102.429 20.6643 101.929 20.1637 101.929 19.5609C101.929 18.9479 102.429 18.4576 103.032 18.4576C103.645 18.4576 104.145 18.9479 104.145 19.5609C104.145 20.1637 103.645 20.6643 103.032 20.6643ZM110.643 31.5958C112.492 31.5958 113.728 30.0633 113.728 27.7238C113.728 25.3842 112.492 23.8314 110.643 23.8314C108.814 23.8314 107.619 25.3434 107.619 27.7238C107.619 30.1042 108.814 31.5958 110.643 31.5958ZM110.704 37.082C108.365 37.082 106.516 35.764 106.219 33.9558L108.048 33.9558C108.395 34.9263 109.448 35.5699 110.776 35.5699C112.615 35.5699 113.728 34.5074 113.728 32.9239L113.728 31.2484L113.688 31.2484C113.034 32.4029 111.777 33.1589 110.285 33.1589C107.578 33.1589 105.801 31.0237 105.801 27.7238C105.801 24.3933 107.578 22.2683 110.326 22.2683C111.828 22.2683 113.075 23.0038 113.779 24.24L113.81 24.24L113.81 22.4521L115.506 22.4521L115.506 32.8626C115.506 35.3963 113.636 37.082 110.704 37.082ZM117.917 33.0771L117.917 18.335L119.695 18.335L119.695 24.1481L119.736 24.1481C120.328 22.963 121.493 22.2683 123.107 22.2683C125.436 22.2683 126.846 23.8416 126.846 26.2118L126.846 33.0771L125.069 33.0771L125.069 26.5387C125.069 24.853 124.221 23.8416 122.555 23.8416C120.788 23.8416 119.695 25.0471 119.695 26.886L119.695 33.0771L117.917 33.0771ZM129.676 19.8878L131.454 19.8878L131.454 22.4521L133.517 22.4521L133.517 23.9131L131.454 23.9131L131.454 30.2268C131.454 31.1973 131.862 31.6366 132.772 31.6366C132.976 31.6366 133.385 31.606 133.507 31.5856L133.507 33.0771C133.293 33.1282 132.802 33.1589 132.383 33.1589C130.432 33.1589 129.676 32.362 129.676 30.3187L129.676 23.9131L128.093 23.9131L128.093 22.4521L129.676 22.4521L129.676 19.8878Z" fill="white"/>
</svg>
