<svg width="159" height="52" viewBox="0 0 159 52" fill="none" xmlns="http://www.w3.org/2000/svg">
<path d="M-1.36677e-08 25.5769C-6.11922e-09 11.4512 11.4512 6.11922e-09 25.5769 1.36677e-08L132.731 7.0928e-08C146.857 7.84764e-08 158.308 11.4512 158.308 25.5769C158.308 39.7027 146.857 51.1538 132.731 51.1538L25.5769 51.1538C11.4512 51.1538 -2.12161e-08 39.7027 -1.36677e-08 25.5769Z" fill="#646464" fill-opacity="0.3"/>
<path d="M0.5 25.5769C0.5 11.7273 11.7273 0.5 25.5769 0.5L132.731 0.5C146.58 0.5 157.808 11.7273 157.808 25.5769C157.808 39.4265 146.58 50.6538 132.731 50.6538L25.5769 50.6538C11.7273 50.6538 0.5 39.4265 0.5 25.5769Z" stroke="white" stroke-opacity="0.1"/>
<path d="M33.6526 33.3223C29.5865 33.3223 27.012 30.3698 27.012 25.7009C27.012 21.0729 29.6172 18.0898 33.6526 18.0898C36.8606 18.0898 39.3023 20.0411 39.7722 22.9834L37.9129 22.9834C37.4429 21.0525 35.7572 19.7857 33.6526 19.7857C30.7716 19.7857 28.902 22.115 28.902 25.7009C28.902 29.3175 30.7512 31.6264 33.6629 31.6264C35.8287 31.6264 37.3816 30.5844 37.9129 28.7863L39.7722 28.7863C39.098 31.6979 36.9117 33.3223 33.6526 33.3223ZM45.1767 31.749C46.8522 31.749 48.1394 30.5741 48.1394 29.0417L48.1394 28.1733L45.2993 28.347C43.869 28.4389 43.0517 29.0723 43.0517 30.0735C43.0517 31.085 43.8996 31.749 45.1767 31.749ZM44.7782 33.261C42.6635 33.261 41.2434 31.984 41.2434 30.0735C41.2434 28.255 42.643 27.1108 45.095 26.9678L48.1394 26.7941L48.1394 25.9053C48.1394 24.6078 47.2813 23.8314 45.8101 23.8314C44.4411 23.8314 43.5829 24.475 43.3582 25.5171L41.6418 25.5171C41.7644 23.6781 43.3377 22.2683 45.851 22.2683C48.3438 22.2683 49.9171 23.6168 49.9171 25.7316L49.9171 33.0771L48.2314 33.0771L48.2314 31.2484L48.1905 31.2484C47.5571 32.4642 46.2085 33.261 44.7782 33.261ZM52.747 33.0771L52.747 23.9131L51.2656 23.9131L51.2656 22.4521L52.747 22.4521L52.747 21.2671C52.747 19.2238 53.6971 18.2532 55.6587 18.2532C56.0571 18.2532 56.4862 18.2941 56.7416 18.335L56.7416 19.7755C56.527 19.7448 56.2308 19.7142 55.9345 19.7142C54.9742 19.7142 54.5144 20.225 54.5144 21.2773L54.5144 22.4521L56.6905 22.4521L56.6905 23.9131L54.5246 23.9131L54.5246 33.0771L52.747 33.0771ZM62.2788 23.8109C60.6136 23.8109 59.4489 25.088 59.3365 26.8554L65.1088 26.8554C65.0679 25.0777 63.9543 23.8109 62.2788 23.8109ZM65.0679 30.0327L66.8149 30.0327C66.5084 31.8921 64.7103 33.261 62.3912 33.261C59.3468 33.261 57.4976 31.1463 57.4976 27.8055C57.4976 24.5056 59.3774 22.2683 62.3095 22.2683C65.1803 22.2683 66.9477 24.3524 66.9477 27.5705L66.9477 28.2448L59.3263 28.2448L59.3263 28.347C59.3263 30.38 60.5216 31.7184 62.4321 31.7184C63.7806 31.7184 64.7716 31.0339 65.0679 30.0327ZM63.1166 20.9197L61.5637 20.9197L63.7091 17.8548L65.6298 17.8548L63.1166 20.9197ZM73.0367 33.0771L73.0367 22.4521L74.7121 22.4521L74.7121 24.1481L74.753 24.1481C75.3456 23.0038 76.4796 22.2683 78.1244 22.2683C80.4537 22.2683 81.8023 23.7701 81.8023 26.1811L81.8023 33.0771L80.0246 33.0771L80.0246 26.4978C80.0246 24.7815 79.2175 23.8416 77.5829 23.8416C75.9075 23.8416 74.8143 25.0267 74.8143 26.8247L74.8143 33.0771L73.0367 33.0771ZM88.3305 23.8109C86.6653 23.8109 85.5006 25.088 85.3882 26.8554L91.1605 26.8554C91.1196 25.0777 90.006 23.8109 88.3305 23.8109ZM91.1196 30.0327L92.8666 30.0327C92.5601 31.8921 90.762 33.261 88.4429 33.261C85.3984 33.261 83.5493 31.1463 83.5493 27.8055C83.5493 24.5056 85.4291 22.2683 88.3612 22.2683C91.232 22.2683 92.9994 24.3524 92.9994 27.5705L92.9994 28.2448L85.378 28.2448L85.378 28.347C85.378 30.38 86.5733 31.7184 88.4838 31.7184C89.8323 31.7184 90.8233 31.0339 91.1196 30.0327ZM98.3017 31.749C99.9772 31.749 101.264 30.5741 101.264 29.0417L101.264 28.1733L98.4243 28.347C96.994 28.4389 96.1767 29.0723 96.1767 30.0735C96.1767 31.085 97.0246 31.749 98.3017 31.749ZM97.9032 33.261C95.7885 33.261 94.3684 31.984 94.3684 30.0735C94.3684 28.255 95.768 27.1108 98.22 26.9678L101.264 26.7941L101.264 25.9053C101.264 24.6078 100.406 23.8314 98.9351 23.8314C97.5661 23.8314 96.7079 24.475 96.4832 25.5171L94.7668 25.5171C94.8894 23.6781 96.4627 22.2683 98.976 22.2683C101.469 22.2683 103.042 23.6168 103.042 25.7316L103.042 33.0771L101.356 33.0771L101.356 31.2484L101.316 31.2484C100.682 32.4642 99.3335 33.261 97.9032 33.261ZM105.3 33.0771L105.3 22.4521L106.975 22.4521L106.975 24.1889L107.016 24.1889C107.364 23.014 108.344 22.2683 109.591 22.2683C109.897 22.2683 110.163 22.3193 110.306 22.3398L110.306 24.0663C110.163 24.0152 109.785 23.9642 109.356 23.9642C107.977 23.9642 107.078 24.9552 107.078 26.457L107.078 33.0771L105.3 33.0771ZM117.038 33.261C115.486 33.261 114.27 32.505 113.585 31.2791L113.544 31.2791L113.544 33.0771L111.849 33.0771L111.849 18.335L113.626 18.335L113.626 24.2298L113.667 24.2298C114.331 23.014 115.567 22.2683 117.069 22.2683C119.746 22.2683 121.554 24.4341 121.554 27.7646C121.554 31.1054 119.756 33.261 117.038 33.261ZM116.691 23.8314C114.893 23.8314 113.616 25.4047 113.616 27.7646C113.616 30.1348 114.893 31.6979 116.691 31.6979C118.571 31.6979 119.736 30.1961 119.736 27.7646C119.736 25.3536 118.571 23.8314 116.691 23.8314ZM123.934 37.0513C123.72 37.0513 123.362 37.0309 123.168 36.99L123.168 35.4984C123.362 35.5393 123.638 35.5495 123.863 35.5495C124.854 35.5495 125.406 35.0693 125.814 33.8332L126.059 33.0874L122.136 22.4521L124.037 22.4521L126.979 31.2995L127.01 31.2995L129.952 22.4521L131.822 22.4521L127.643 33.8229C126.734 36.3055 125.855 37.0513 123.934 37.0513Z" fill="white"/>
</svg>
