<svg width="381" height="783" viewBox="0 0 381 783" fill="none" xmlns="http://www.w3.org/2000/svg">
<path fill-rule="evenodd" clip-rule="evenodd" d="M53.6478 -0.000732422C24.1509 -0.000732422 0.238983 23.8273 0.238983 53.2207V729.778C0.238983 759.171 24.1509 782.999 53.6478 782.999H327.166C356.662 782.999 380.574 759.171 380.574 729.778V53.2207C380.574 23.8273 356.662 -0.000732422 327.166 -0.000732422H53.6478ZM54.457 5.64396C27.6417 5.64396 5.90355 27.3058 5.90355 54.0271V728.971C5.90355 755.693 27.6417 777.355 54.457 777.355H326.356C353.172 777.355 374.91 755.693 374.91 728.971V54.0271C374.91 27.3058 353.172 5.64396 326.356 5.64396H54.457Z" fill="#31353A"/>
</svg>
