<svg width="227" height="113" viewBox="0 0 227 113" fill="none" xmlns="http://www.w3.org/2000/svg">
<g filter="url(#filter0_d_2_2528)">
<rect x="30" y="25.4966" width="167" height="52" rx="26" fill="white" shape-rendering="crispEdges"/>
<path d="M71.7969 54.606H73.5156C73.5391 55.5435 74.2188 56.1841 75.1953 56.1841C76.3438 56.1841 76.9688 55.4966 76.9688 54.2075V46.2231H78.7188V54.2153C78.7188 56.4497 77.4062 57.7466 75.2109 57.7466C73.1797 57.7466 71.7969 56.481 71.7969 54.606ZM84.1484 57.6528C81.7969 57.6528 80.25 56.0356 80.25 53.3872C80.25 50.7466 81.8047 49.1294 84.1484 49.1294C86.4922 49.1294 88.0469 50.7466 88.0469 53.3872C88.0469 56.0356 86.5 57.6528 84.1484 57.6528ZM84.1484 56.2622C85.4766 56.2622 86.3281 55.2153 86.3281 53.3872C86.3281 51.5669 85.4688 50.52 84.1484 50.52C82.8281 50.52 81.9688 51.5669 81.9688 53.3872C81.9688 55.2153 82.8281 56.2622 84.1484 56.2622ZM89.4062 57.4966V49.2778H91.0938V57.4966H89.4062ZM90.25 47.9497C89.7109 47.9497 89.2734 47.5122 89.2734 46.981C89.2734 46.4419 89.7109 46.0122 90.25 46.0122C90.7891 46.0122 91.2188 46.4419 91.2188 46.981C91.2188 47.5122 90.7891 47.9497 90.25 47.9497ZM92.8203 57.4966V49.2778H94.4297V50.6528H94.4688C94.9141 49.7153 95.7891 49.1372 97.0547 49.1372C98.8672 49.1372 99.9062 50.2935 99.9062 52.1763V57.4966H98.2109V52.5044C98.2109 51.27 97.6328 50.5903 96.4609 50.5903C95.2734 50.5903 94.5078 51.4341 94.5078 52.7075V57.4966H92.8203ZM111.422 48.9966L108.992 57.4966H107.336L104.297 46.2231H106.117L108.203 55.0513H108.266L110.648 46.2231H112.273L114.664 55.0513H114.727L116.812 46.2231H118.633L115.586 57.4966H113.938L111.5 48.9966H111.422ZM121.617 56.3013C122.797 56.3013 123.719 55.4888 123.719 54.4185V53.77L121.695 53.895C120.688 53.9653 120.117 54.4106 120.117 55.1138C120.117 55.8325 120.711 56.3013 121.617 56.3013ZM121.148 57.6372C119.539 57.6372 118.414 56.6372 118.414 55.1606C118.414 53.7231 119.516 52.8403 121.469 52.731L123.719 52.5981V51.9653C123.719 51.0513 123.102 50.5044 122.07 50.5044C121.094 50.5044 120.484 50.9731 120.336 51.7075H118.742C118.836 50.2231 120.102 49.1294 122.133 49.1294C124.125 49.1294 125.398 50.1841 125.398 51.8325V57.4966H123.781V56.145H123.742C123.266 57.0591 122.227 57.6372 121.148 57.6372ZM127.094 57.4966V49.2778H128.781V57.4966H127.094ZM127.938 47.9497C127.398 47.9497 126.961 47.5122 126.961 46.981C126.961 46.4419 127.398 46.0122 127.938 46.0122C128.477 46.0122 128.906 46.4419 128.906 46.981C128.906 47.5122 128.477 47.9497 127.938 47.9497ZM131 47.3325H132.695V49.2778H134.258V50.6138H132.695V55.145C132.695 55.856 133.008 56.1763 133.695 56.1763C133.867 56.1763 134.141 56.1606 134.25 56.1372V57.4731C134.062 57.52 133.688 57.5513 133.312 57.5513C131.648 57.5513 131 56.9185 131 55.3325V50.6138H129.805V49.2778H131V47.3325ZM135.711 57.4966V46.2231H137.398V57.4966H135.711ZM139.188 57.4966V49.2778H140.875V57.4966H139.188ZM140.031 47.9497C139.492 47.9497 139.055 47.5122 139.055 46.981C139.055 46.4419 139.492 46.0122 140.031 46.0122C140.57 46.0122 141 46.4419 141 46.981C141 47.5122 140.57 47.9497 140.031 47.9497ZM142.453 51.606C142.453 50.1372 143.734 49.1294 145.625 49.1294C147.539 49.1294 148.781 50.1919 148.836 51.7075H147.25C147.156 50.9106 146.57 50.4106 145.625 50.4106C144.711 50.4106 144.102 50.856 144.102 51.5122C144.102 52.0278 144.477 52.3794 145.367 52.5825L146.703 52.8872C148.383 53.2778 149.023 53.9341 149.023 55.1216C149.023 56.6216 147.625 57.6528 145.688 57.6528C143.633 57.6528 142.398 56.645 142.242 55.0825H143.914C144.07 55.9419 144.656 56.3638 145.688 56.3638C146.703 56.3638 147.328 55.9419 147.328 55.27C147.328 54.7388 147.023 54.4263 146.125 54.2231L144.789 53.9106C143.227 53.5513 142.453 52.8013 142.453 51.606ZM150.828 47.3325H152.523V49.2778H154.086V50.6138H152.523V55.145C152.523 55.856 152.836 56.1763 153.523 56.1763C153.695 56.1763 153.969 56.1606 154.078 56.1372V57.4731C153.891 57.52 153.516 57.5513 153.141 57.5513C151.477 57.5513 150.828 56.9185 150.828 55.3325V50.6138H149.633V49.2778H150.828V47.3325Z" fill="black"/>
</g>
<defs>
<filter id="filter0_d_2_2528" x="0" y="0.496582" width="227" height="112" filterUnits="userSpaceOnUse" color-interpolation-filters="sRGB">
<feFlood flood-opacity="0" result="BackgroundImageFix"/>
<feColorMatrix in="SourceAlpha" type="matrix" values="0 0 0 0 0 0 0 0 0 0 0 0 0 0 0 0 0 0 127 0" result="hardAlpha"/>
<feOffset dy="5"/>
<feGaussianBlur stdDeviation="15"/>
<feComposite in2="hardAlpha" operator="out"/>
<feColorMatrix type="matrix" values="0 0 0 0 1 0 0 0 0 1 0 0 0 0 1 0 0 0 0.61 0"/>
<feBlend mode="normal" in2="BackgroundImageFix" result="effect1_dropShadow_2_2528"/>
<feBlend mode="normal" in="SourceGraphic" in2="effect1_dropShadow_2_2528" result="shape"/>
</filter>
</defs>
</svg>
