<svg width="350" height="759" viewBox="0 0 350 759" fill="none" xmlns="http://www.w3.org/2000/svg">
<g clip-path="url(#clip0_6104_3218)">
<path d="M60.5969 360.303H58.0946V351.17H47.0847V360.303H44.5824V340.243H47.0847V348.918H58.0946V340.243H60.5969V360.303ZM63.6696 360.303V345.846H66.0885V360.303H63.6696ZM64.879 343.413C64.0589 343.413 63.3777 342.732 63.3777 341.911C63.3777 341.077 64.0589 340.41 64.879 340.41C65.7131 340.41 66.3943 341.077 66.3943 341.911C66.3943 342.732 65.7131 343.413 64.879 343.413ZM69.759 340.243H72.2613L72.0944 353.644H69.9258L69.759 340.243ZM71.0101 360.442C70.1204 360.442 69.4254 359.747 69.4254 358.857C69.4254 357.954 70.1204 357.273 71.0101 357.273C71.9137 357.273 72.5949 357.954 72.5949 358.857C72.5949 359.747 71.9137 360.442 71.0101 360.442ZM89.7086 360.637C84.1759 360.637 80.6727 356.619 80.6727 350.266C80.6727 343.969 84.2176 339.91 89.7086 339.91C94.0737 339.91 97.3961 342.565 98.0356 346.568H95.5055C94.8661 343.941 92.5723 342.217 89.7086 342.217C85.7884 342.217 83.2445 345.387 83.2445 350.266C83.2445 355.187 85.7606 358.329 89.7225 358.329C92.6696 358.329 94.7827 356.911 95.5055 354.464H98.0356C97.1181 358.426 94.1432 360.637 89.7086 360.637ZM104.82 358.496C107.1 358.496 108.851 356.897 108.851 354.812V353.63L104.987 353.867C103.041 353.992 101.929 354.854 101.929 356.216C101.929 357.592 103.082 358.496 104.82 358.496ZM104.278 360.553C101.4 360.553 99.468 358.816 99.468 356.216C99.468 353.742 101.372 352.185 104.709 351.99L108.851 351.754V350.544C108.851 348.779 107.684 347.722 105.682 347.722C103.819 347.722 102.651 348.598 102.346 350.016H100.01C100.177 347.514 102.318 345.595 105.738 345.595C109.129 345.595 111.27 347.43 111.27 350.308V360.303H108.977V357.815H108.921C108.059 359.469 106.224 360.553 104.278 360.553ZM113.773 360.303V345.846H116.053V348.153H116.109C116.915 346.596 118.458 345.595 120.696 345.595C123.866 345.595 125.701 347.639 125.701 350.92V360.303H123.282V351.35C123.282 349.015 122.183 347.736 119.959 347.736C117.679 347.736 116.192 349.349 116.192 351.795V360.303H113.773ZM134.682 365.711C134.39 365.711 133.903 365.683 133.639 365.627V363.598C133.903 363.653 134.279 363.667 134.585 363.667C135.933 363.667 136.684 363.014 137.24 361.332L137.573 360.317L132.235 345.846H134.821L138.825 357.884H138.866L142.87 345.846H145.414L139.728 361.318C138.491 364.696 137.295 365.711 134.682 365.711ZM152.337 360.553C148.334 360.553 145.637 357.676 145.637 353.074C145.637 348.459 148.334 345.595 152.337 345.595C156.327 345.595 159.024 348.459 159.024 353.074C159.024 357.676 156.327 360.553 152.337 360.553ZM152.337 358.426C154.895 358.426 156.563 356.48 156.563 353.074C156.563 349.668 154.895 347.722 152.337 347.722C149.779 347.722 148.097 349.668 148.097 353.074C148.097 356.48 149.779 358.426 152.337 358.426ZM172.773 345.846V360.303H170.479V357.954H170.424C169.562 359.622 168.06 360.553 165.836 360.553C162.68 360.553 160.832 358.51 160.832 355.229V345.846H163.25V354.798C163.25 357.147 164.349 358.412 166.587 358.412C168.936 358.412 170.354 356.8 170.354 354.339V345.846H172.773ZM181.393 360.303V347.833H179.377V345.846H181.393V344.233C181.393 341.453 182.686 340.132 185.355 340.132C185.897 340.132 186.481 340.188 186.828 340.243V342.203C186.536 342.162 186.133 342.12 185.73 342.12C184.423 342.12 183.798 342.815 183.798 344.247V345.846H186.759V347.833H183.812V360.303H181.393ZM188.817 360.303V345.846H191.236V360.303H188.817ZM190.026 343.413C189.206 343.413 188.525 342.732 188.525 341.911C188.525 341.077 189.206 340.41 190.026 340.41C190.86 340.41 191.541 341.077 191.541 341.911C191.541 342.732 190.86 343.413 190.026 343.413ZM193.933 360.303V345.846H196.213V348.153H196.269C197.075 346.596 198.618 345.595 200.856 345.595C204.026 345.595 205.861 347.639 205.861 350.92V360.303H203.442V351.35C203.442 349.015 202.343 347.736 200.119 347.736C197.839 347.736 196.352 349.349 196.352 351.795V360.303H193.933ZM213.854 360.553C210.171 360.553 207.668 357.606 207.668 353.074C207.668 348.542 210.157 345.595 213.799 345.595C215.87 345.595 217.538 346.61 218.4 348.195H218.456V340.243H220.875V360.303H218.567V357.856H218.525C217.594 359.525 215.94 360.553 213.854 360.553ZM214.313 347.722C211.755 347.722 210.143 349.807 210.143 353.074C210.143 356.355 211.755 358.426 214.313 358.426C216.801 358.426 218.47 356.313 218.47 353.074C218.47 349.849 216.801 347.722 214.313 347.722ZM228.841 360.303V345.846H231.121V348.153H231.177C231.858 346.624 233.331 345.595 235.278 345.595C237.252 345.595 238.711 346.596 239.337 348.348H239.392C240.199 346.624 241.895 345.595 243.924 345.595C246.788 345.595 248.637 347.458 248.637 350.322V360.303H246.218V350.878C246.218 348.904 245.12 347.736 243.215 347.736C241.297 347.736 239.948 349.154 239.948 351.114V360.303H237.53V350.614C237.53 348.876 236.362 347.736 234.569 347.736C232.65 347.736 231.26 349.237 231.26 351.239V360.303H228.841ZM256.95 347.694C254.685 347.694 253.1 349.432 252.947 351.837H260.801C260.746 349.418 259.23 347.694 256.95 347.694ZM260.746 356.16H263.123C262.706 358.69 260.259 360.553 257.103 360.553C252.961 360.553 250.445 357.676 250.445 353.13C250.445 348.64 253.002 345.595 256.992 345.595C260.898 345.595 263.303 348.431 263.303 352.81V353.728H252.933V353.867C252.933 356.633 254.559 358.454 257.159 358.454C258.994 358.454 260.342 357.523 260.746 356.16ZM271.228 342.356H273.647V345.846H276.455V347.833H273.647V356.425C273.647 357.745 274.203 358.343 275.44 358.343C275.718 358.343 276.275 358.301 276.441 358.273V360.303C276.149 360.373 275.482 360.414 274.912 360.414C272.257 360.414 271.228 359.33 271.228 356.55V347.833H269.074V345.846H271.228V342.356ZM284.046 360.553C280.042 360.553 277.345 357.676 277.345 353.074C277.345 348.459 280.042 345.595 284.046 345.595C288.036 345.595 290.733 348.459 290.733 353.074C290.733 357.676 288.036 360.553 284.046 360.553ZM284.046 358.426C286.604 358.426 288.272 356.48 288.272 353.074C288.272 349.668 286.604 347.722 284.046 347.722C281.488 347.722 279.806 349.668 279.806 353.074C279.806 356.48 281.488 358.426 284.046 358.426ZM299.63 345.595C303.314 345.595 305.816 348.542 305.816 353.074C305.816 357.606 303.328 360.553 299.686 360.553C297.614 360.553 295.946 359.538 295.084 357.954H295.029V365.127H292.61V345.846H294.904V348.292H294.959C295.849 346.666 297.531 345.595 299.63 345.595ZM299.157 358.426C301.729 358.426 303.342 356.355 303.342 353.074C303.342 349.807 301.729 347.722 299.157 347.722C296.683 347.722 295.015 349.863 295.015 353.074C295.015 356.299 296.683 358.426 299.157 358.426ZM44.5335 388.303V373.846H46.8133V376.209H46.8689C47.3416 374.61 48.6761 373.595 50.3721 373.595C50.7891 373.595 51.1506 373.665 51.3452 373.693V376.042C51.1506 375.972 50.6362 375.903 50.0524 375.903C48.1757 375.903 46.9523 377.251 46.9523 379.295V388.303H44.5335ZM57.2399 386.496C59.5198 386.496 61.2713 384.897 61.2713 382.812V381.63L57.4068 381.867C55.4606 381.992 54.3484 382.854 54.3484 384.216C54.3484 385.592 55.5023 386.496 57.2399 386.496ZM56.6978 388.553C53.8202 388.553 51.8879 386.816 51.8879 384.216C51.8879 381.742 53.7924 380.185 57.1287 379.99L61.2713 379.754V378.544C61.2713 376.779 60.1036 375.722 58.1018 375.722C56.239 375.722 55.0713 376.598 54.7655 378.016H52.43C52.5969 375.514 54.7377 373.595 58.1574 373.595C61.5494 373.595 63.6902 375.43 63.6902 378.308V388.303H61.3965V385.815H61.3409C60.479 387.469 58.644 388.553 56.6978 388.553ZM66.9715 370.356H69.3903V373.846H72.1984V375.833H69.3903V384.425C69.3903 385.745 69.9464 386.343 71.1836 386.343C71.4616 386.343 72.0177 386.301 72.1845 386.273V388.303C71.8926 388.373 71.2253 388.414 70.6554 388.414C68.0002 388.414 66.9715 387.33 66.9715 384.55V375.833H64.8168V373.846H66.9715V370.356ZM79.5945 375.694C77.3286 375.694 75.7438 377.432 75.5909 379.837H83.4452C83.3896 377.418 81.8744 375.694 79.5945 375.694ZM83.3896 384.16H85.7668C85.3497 386.69 82.9031 388.553 79.7474 388.553C75.6048 388.553 73.0887 385.676 73.0887 381.13C73.0887 376.64 75.6465 373.595 79.6362 373.595C83.5425 373.595 85.9475 376.431 85.9475 380.81V381.728H75.577V381.867C75.577 384.633 77.2035 386.454 79.803 386.454C81.638 386.454 82.9865 385.523 83.3896 384.16ZM93.3019 388.553C89.618 388.553 87.1157 385.606 87.1157 381.074C87.1157 376.542 89.6041 373.595 93.2463 373.595C95.3176 373.595 96.9857 374.61 97.8476 376.195H97.9032V368.243H100.322V388.303H98.0145V385.856H97.9727C97.0414 387.525 95.3871 388.553 93.3019 388.553ZM93.7606 375.722C91.2028 375.722 89.5902 377.807 89.5902 381.074C89.5902 384.355 91.2028 386.426 93.7606 386.426C96.249 386.426 97.9171 384.313 97.9171 381.074C97.9171 377.849 96.249 375.722 93.7606 375.722ZM108.289 388.303V373.846H110.569V376.209H110.624C111.097 374.61 112.431 373.595 114.127 373.595C114.544 373.595 114.906 373.665 115.1 373.693V376.042C114.906 375.972 114.391 375.903 113.808 375.903C111.931 375.903 110.708 377.251 110.708 379.295V388.303H108.289ZM121.607 375.694C119.341 375.694 117.756 377.432 117.603 379.837H125.458C125.402 377.418 123.887 375.694 121.607 375.694ZM125.402 384.16H127.779C127.362 386.69 124.915 388.553 121.76 388.553C117.617 388.553 115.101 385.676 115.101 381.13C115.101 376.64 117.659 373.595 121.649 373.595C125.555 373.595 127.96 376.431 127.96 380.81V381.728H117.589V381.867C117.589 384.633 119.216 386.454 121.815 386.454C123.65 386.454 124.999 385.523 125.402 384.16ZM129.587 377.835C129.587 375.361 131.797 373.595 134.981 373.595C137.969 373.595 140.166 375.375 140.277 377.821H137.969C137.803 376.431 136.677 375.569 134.897 375.569C133.132 375.569 131.964 376.445 131.964 377.71C131.964 378.711 132.729 379.378 134.369 379.795L136.607 380.337C139.526 381.074 140.583 382.131 140.583 384.258C140.583 386.774 138.206 388.553 134.828 388.553C131.658 388.553 129.448 386.829 129.198 384.272H131.616C131.881 385.773 133.02 386.579 134.981 386.579C136.941 386.579 138.15 385.745 138.15 384.438C138.15 383.41 137.552 382.854 135.926 382.423L133.382 381.769C130.838 381.116 129.587 379.809 129.587 377.835ZM143.308 370.356H145.727V373.846H148.535V375.833H145.727V384.425C145.727 385.745 146.283 386.343 147.52 386.343C147.798 386.343 148.354 386.301 148.521 386.273V388.303C148.229 388.373 147.562 388.414 146.992 388.414C144.337 388.414 143.308 387.33 143.308 384.55V375.833H141.153V373.846H143.308V370.356ZM155.041 386.496C157.321 386.496 159.073 384.897 159.073 382.812V381.63L155.208 381.867C153.262 381.992 152.15 382.854 152.15 384.216C152.15 385.592 153.304 386.496 155.041 386.496ZM154.499 388.553C151.622 388.553 149.689 386.816 149.689 384.216C149.689 381.742 151.594 380.185 154.93 379.99L159.073 379.754V378.544C159.073 376.779 157.905 375.722 155.903 375.722C154.04 375.722 152.873 376.598 152.567 378.016H150.232C150.398 375.514 152.539 373.595 155.959 373.595C159.351 373.595 161.492 375.43 161.492 378.308V388.303H159.198V385.815H159.142C158.28 387.469 156.445 388.553 154.499 388.553ZM175.866 373.846V388.303H173.573V385.954H173.517C172.655 387.622 171.154 388.553 168.929 388.553C165.774 388.553 163.925 386.51 163.925 383.229V373.846H166.344V382.798C166.344 385.147 167.442 386.412 169.68 386.412C172.029 386.412 173.447 384.8 173.447 382.339V373.846H175.866ZM178.439 388.303V373.846H180.718V376.209H180.774C181.247 374.61 182.581 373.595 184.277 373.595C184.694 373.595 185.056 373.665 185.25 373.693V376.042C185.056 375.972 184.541 375.903 183.957 375.903C182.081 375.903 180.857 377.251 180.857 379.295V388.303H178.439ZM191.145 386.496C193.425 386.496 195.176 384.897 195.176 382.812V381.63L191.312 381.867C189.366 381.992 188.254 382.854 188.254 384.216C188.254 385.592 189.407 386.496 191.145 386.496ZM190.603 388.553C187.725 388.553 185.793 386.816 185.793 384.216C185.793 381.742 187.697 380.185 191.034 379.99L195.176 379.754V378.544C195.176 376.779 194.009 375.722 192.007 375.722C190.144 375.722 188.976 376.598 188.671 378.016H186.335C186.502 375.514 188.643 373.595 192.063 373.595C195.454 373.595 197.595 375.43 197.595 378.308V388.303H195.302V385.815H195.246C194.384 387.469 192.549 388.553 190.603 388.553ZM200.098 388.303V373.846H202.378V376.153H202.434C203.24 374.596 204.783 373.595 207.021 373.595C210.191 373.595 212.026 375.639 212.026 378.92V388.303H209.607V379.35C209.607 377.015 208.508 375.736 206.284 375.736C204.004 375.736 202.517 377.349 202.517 379.795V388.303H200.098ZM215.321 370.356H217.74V373.846H220.548V375.833H217.74V384.425C217.74 385.745 218.296 386.343 219.533 386.343C219.811 386.343 220.367 386.301 220.534 386.273V388.303C220.242 388.373 219.575 388.414 219.005 388.414C216.349 388.414 215.321 387.33 215.321 384.55V375.833H213.166V373.846H215.321V370.356ZM222.314 377.835C222.314 375.361 224.524 373.595 227.707 373.595C230.696 373.595 232.893 375.375 233.004 377.821H230.696C230.529 376.431 229.403 375.569 227.624 375.569C225.859 375.569 224.691 376.445 224.691 377.71C224.691 378.711 225.455 379.378 227.096 379.795L229.334 380.337C232.253 381.074 233.31 382.131 233.31 384.258C233.31 386.774 230.933 388.553 227.554 388.553C224.385 388.553 222.175 386.829 221.924 384.272H224.343C224.607 385.773 225.747 386.579 227.707 386.579C229.668 386.579 230.877 385.745 230.877 384.438C230.877 383.41 230.279 382.854 228.653 382.423L226.109 381.769C223.565 381.116 222.314 379.809 222.314 377.835ZM258.917 373.846L254.886 388.303H252.425L249.158 377.112H249.103L245.85 388.303H243.389L239.344 373.846H241.749L244.64 385.606H244.696L247.963 373.846H250.298L253.579 385.606H253.635L256.526 373.846H258.917ZM260.461 388.303V373.846H262.88V388.303H260.461ZM261.67 371.413C260.85 371.413 260.169 370.732 260.169 369.911C260.169 369.077 260.85 368.41 261.67 368.41C262.504 368.41 263.185 369.077 263.185 369.911C263.185 370.732 262.504 371.413 261.67 371.413ZM266.356 370.356H268.774V373.846H271.582V375.833H268.774V384.425C268.774 385.745 269.33 386.343 270.568 386.343C270.846 386.343 271.402 386.301 271.569 386.273V388.303C271.277 388.373 270.609 388.414 270.039 388.414C267.384 388.414 266.356 387.33 266.356 384.55V375.833H264.201V373.846H266.356V370.356ZM273.724 388.303V368.243H276.143V376.153H276.198C277.005 374.541 278.589 373.595 280.786 373.595C283.955 373.595 285.874 375.736 285.874 378.961V388.303H283.455V379.406C283.455 377.112 282.301 375.736 280.035 375.736C277.63 375.736 276.143 377.376 276.143 379.879V388.303H273.724ZM298.414 386.496C300.694 386.496 302.445 384.897 302.445 382.812V381.63L298.581 381.867C296.634 381.992 295.522 382.854 295.522 384.216C295.522 385.592 296.676 386.496 298.414 386.496ZM297.872 388.553C294.994 388.553 293.062 386.816 293.062 384.216C293.062 381.742 294.966 380.185 298.303 379.99L302.445 379.754V378.544C302.445 376.779 301.278 375.722 299.276 375.722C297.413 375.722 296.245 376.598 295.939 378.016H293.604C293.771 375.514 295.912 373.595 299.331 373.595C302.723 373.595 304.864 375.43 304.864 378.308V388.303H302.57V385.815H302.515C301.653 387.469 299.818 388.553 297.872 388.553Z" fill="white"/>
<path d="M123.192 416.303V401.846H125.472V404.153H125.528C126.334 402.596 127.877 401.595 130.115 401.595C133.285 401.595 135.12 403.639 135.12 406.92V416.303H132.701V407.35C132.701 405.015 131.602 403.736 129.378 403.736C127.098 403.736 125.611 405.349 125.611 407.795V416.303H123.192ZM137.761 416.303V401.846H140.18V416.303H137.761ZM138.971 399.413C138.151 399.413 137.469 398.732 137.469 397.911C137.469 397.077 138.151 396.41 138.971 396.41C139.805 396.41 140.486 397.077 140.486 397.911C140.486 398.732 139.805 399.413 138.971 399.413ZM154.888 406.586H152.525C152.178 405.015 150.954 403.722 148.827 403.722C146.325 403.722 144.629 405.794 144.629 409.074C144.629 412.438 146.353 414.426 148.855 414.426C150.829 414.426 152.122 413.384 152.539 411.646H154.916C154.541 414.524 152.122 416.553 148.841 416.553C144.838 416.553 142.169 413.731 142.169 409.074C142.169 404.515 144.824 401.595 148.814 401.595C152.428 401.595 154.583 403.986 154.888 406.586ZM162.368 403.694C160.102 403.694 158.517 405.432 158.364 407.837H166.219C166.163 405.418 164.648 403.694 162.368 403.694ZM166.163 412.16H168.54C168.123 414.69 165.677 416.553 162.521 416.553C158.378 416.553 155.862 413.676 155.862 409.13C155.862 404.64 158.42 401.595 162.41 401.595C166.316 401.595 168.721 404.431 168.721 408.81V409.728H158.35V409.867C158.35 412.633 159.977 414.454 162.577 414.454C164.412 414.454 165.76 413.523 166.163 412.16ZM187.725 401.846L182.415 416.303H179.94L174.616 401.846H177.16L181.15 413.731H181.206L185.209 401.846H187.725ZM189.185 416.303V401.846H191.604V416.303H189.185ZM190.395 399.413C189.575 399.413 188.894 398.732 188.894 397.911C188.894 397.077 189.575 396.41 190.395 396.41C191.229 396.41 191.91 397.077 191.91 397.911C191.91 398.732 191.229 399.413 190.395 399.413ZM200.099 403.694C197.833 403.694 196.248 405.432 196.095 407.837H203.949C203.894 405.418 202.378 403.694 200.099 403.694ZM203.894 412.16H206.271C205.854 414.69 203.407 416.553 200.252 416.553C196.109 416.553 193.593 413.676 193.593 409.13C193.593 404.64 196.151 401.595 200.14 401.595C204.047 401.595 206.452 404.431 206.452 408.81V409.728H196.081V409.867C196.081 412.633 197.708 414.454 200.307 414.454C202.142 414.454 203.491 413.523 203.894 412.16ZM226.72 401.846L222.689 416.303H220.228L216.962 405.112H216.906L213.653 416.303H211.193L207.147 401.846H209.552L212.444 413.606H212.499L215.766 401.846H218.102L221.382 413.606H221.438L224.329 401.846H226.72Z" fill="white" fill-opacity="0.4"/>
<rect x="114.756" y="746.594" width="120.136" height="4.48267" rx="2.24134" fill="white"/>
<path d="M38.1487 17.4228C40.4233 17.4228 42.4026 19.0401 42.4026 22.8804V22.8952C42.4026 26.4843 40.7852 28.6113 38.1044 28.6113C36.1474 28.6113 34.6851 27.4518 34.3454 25.8197L34.3306 25.7384H36.2064L36.2286 25.8123C36.5092 26.5582 37.1665 27.0456 38.1044 27.0456C39.7956 27.0456 40.512 25.3913 40.5932 23.3531C40.5932 23.2718 40.6006 23.1906 40.6006 23.1093H40.4529C40.0615 23.9512 39.1309 24.6971 37.6687 24.6971C35.623 24.6971 34.1903 23.2054 34.1903 21.1818V21.1671C34.1903 19.0032 35.8372 17.4228 38.1487 17.4228ZM38.1413 23.2349C39.3451 23.2349 40.2683 22.3634 40.2683 21.1597V21.1449C40.2683 19.9264 39.3451 18.9737 38.1635 18.9737C36.9893 18.9737 36.0514 19.9116 36.0514 21.1006V21.1154C36.0514 22.3487 36.9302 23.2349 38.1413 23.2349ZM45.3924 21.4403C44.7204 21.4403 44.2182 20.9233 44.2182 20.2735C44.2182 19.6162 44.7204 19.1066 45.3924 19.1066C46.0718 19.1066 46.5666 19.6162 46.5666 20.2735C46.5666 20.9233 46.0718 21.4403 45.3924 21.4403ZM45.3924 26.9201C44.7204 26.9201 44.2182 26.4105 44.2182 25.7532C44.2182 25.0959 44.7204 24.5864 45.3924 24.5864C46.0718 24.5864 46.5666 25.0959 46.5666 25.7532C46.5666 26.4105 46.0718 26.9201 45.3924 26.9201ZM53.5519 28.3454V26.2997H48.338V24.7415C49.719 22.3413 51.2329 19.8894 52.6804 17.6887H55.376V24.7267H56.8087V26.2997H55.376V28.3454H53.5519ZM50.1104 24.771H53.5814V19.21H53.4706C52.3776 20.879 51.1443 22.8509 50.1104 24.6602V24.771ZM60.862 28.3454V19.5645H60.7365L58.0852 21.4403V19.6457L60.8694 17.6887H62.7674V28.3454H60.862Z" fill="white"/>
<path opacity="0.35" d="M316.403 17.3407H330.473C332.06 17.3407 333.346 18.6273 333.346 20.2145V24.3525C333.346 25.9397 332.06 27.2263 330.473 27.2263H316.403C314.816 27.2263 313.529 25.9397 313.529 24.3525V20.2145C313.529 18.6273 314.816 17.3407 316.403 17.3407Z" stroke="white" stroke-width="0.873196"/>
<path opacity="0.4" d="M334.611 21.0421V24.5349C335.313 24.2391 335.77 23.5509 335.77 22.7885C335.77 22.0261 335.313 21.3379 334.611 21.0421" fill="white"/>
<path d="M314.748 20.2145C314.748 19.3003 315.489 18.5593 316.403 18.5593H330.473C331.387 18.5593 332.128 19.3003 332.128 20.2145V24.3525C332.128 25.2667 331.387 26.0077 330.473 26.0077H316.403C315.489 26.0077 314.748 25.2667 314.748 24.3525V20.2145Z" fill="white"/>
<path fill-rule="evenodd" clip-rule="evenodd" d="M300.266 19.8733C302.307 19.8734 304.27 20.674 305.75 22.1097C305.861 22.2205 306.039 22.2191 306.149 22.1066L307.214 21.0095C307.269 20.9524 307.3 20.8751 307.3 20.7946C307.299 20.7141 307.267 20.6371 307.211 20.5807C303.328 16.7822 297.202 16.7822 293.319 20.5807C293.263 20.6371 293.231 20.714 293.23 20.7945C293.23 20.875 293.261 20.9524 293.316 21.0095L294.382 22.1066C294.491 22.2193 294.669 22.2207 294.781 22.1097C296.26 20.6739 298.224 19.8733 300.266 19.8733ZM300.295 23.2536C301.417 23.2535 302.498 23.679 303.329 24.4475C303.442 24.5565 303.619 24.5542 303.729 24.4421L304.792 23.3451C304.848 23.2875 304.879 23.2095 304.879 23.1284C304.878 23.0472 304.845 22.9698 304.788 22.9135C302.256 20.5096 298.336 20.5096 295.804 22.9135C295.747 22.9698 295.714 23.0473 295.713 23.1284C295.713 23.2096 295.744 23.2876 295.8 23.3451L296.863 24.4421C296.973 24.5542 297.15 24.5565 297.263 24.4475C298.093 23.6795 299.174 23.254 300.295 23.2536ZM302.458 25.4639C302.46 25.5452 302.428 25.6236 302.371 25.6806L300.531 27.576C300.477 27.6317 300.404 27.6631 300.327 27.6631C300.25 27.6631 300.177 27.6317 300.123 27.576L298.283 25.6806C298.226 25.6236 298.194 25.5451 298.196 25.4638C298.198 25.3825 298.232 25.3054 298.292 25.2509C299.467 24.2364 301.188 24.2364 302.363 25.2509C302.422 25.3055 302.456 25.3825 302.458 25.4639Z" fill="white"/>
<path d="M279.989 20.2144C279.989 19.7574 280.36 19.3868 280.817 19.3868H281.644C282.101 19.3868 282.472 19.7574 282.472 20.2144V26.8353C282.472 27.2924 282.101 27.6629 281.644 27.6629H280.817C280.36 27.6629 279.989 27.2924 279.989 26.8353V20.2144Z" fill="white"/>
<path d="M284.127 18.5592C284.127 18.1022 284.498 17.7316 284.955 17.7316H285.782C286.24 17.7316 286.61 18.1022 286.61 18.5592V26.8353C286.61 27.2924 286.24 27.6629 285.782 27.6629H284.955C284.498 27.6629 284.127 27.2924 284.127 26.8353V18.5592Z" fill="white"/>
<path d="M275.851 23.1111C275.851 22.654 276.222 22.2835 276.679 22.2835H277.506C277.963 22.2835 278.334 22.654 278.334 23.1111V26.8353C278.334 27.2924 277.963 27.6629 277.506 27.6629H276.679C276.222 27.6629 275.851 27.2924 275.851 26.8353V23.1111Z" fill="white"/>
<path d="M271.713 25.1801C271.713 24.723 272.084 24.3525 272.541 24.3525H273.368C273.825 24.3525 274.196 24.723 274.196 25.1801V26.8353C274.196 27.2924 273.825 27.6629 273.368 27.6629H272.541C272.084 27.6629 271.713 27.2924 271.713 26.8353V25.1801Z" fill="white"/>
<g filter="url(#filter0_b_6104_3218)">
<path d="M21.1999 71.1752H32.0289V72.9546H21.1999L25.9722 77.7268L24.714 78.985L17.7938 72.0649L24.714 65.1447L25.9722 66.4029L21.1999 71.1752Z" fill="white"/>
<path d="M119.121 78.2246C116.869 78.2246 115.382 77.1541 115.257 75.3887L115.25 75.2844H116.765L116.779 75.3748C116.918 76.2992 117.842 76.8761 119.184 76.8761C120.525 76.8761 121.373 76.2714 121.373 75.3331V75.3261C121.373 74.5198 120.824 74.0819 119.497 73.79L118.405 73.5606C116.438 73.1436 115.486 72.24 115.486 70.7525V70.7456C115.493 69.0357 117.001 67.8611 119.121 67.8611C121.213 67.8611 122.645 69.001 122.749 70.683L122.756 70.8012H121.241L121.234 70.7039C121.095 69.7725 120.289 69.2095 119.1 69.2095C117.856 69.2164 117.064 69.8073 117.064 70.683V70.69C117.064 71.4407 117.634 71.8994 118.885 72.1705L119.983 72.3999C122.054 72.8378 122.944 73.6788 122.944 75.2288V75.2358C122.944 77.0638 121.498 78.2246 119.121 78.2246ZM124.167 80.4905V70.7456H125.669V72.0037H125.704C126.141 71.1348 126.948 70.6066 127.99 70.6066C129.853 70.6066 131.049 72.0662 131.049 74.4017V74.4086C131.049 76.7371 129.846 78.2037 128.011 78.2037C126.975 78.2037 126.134 77.6755 125.704 76.8275H125.669V80.4905H124.167ZM127.601 76.9109C128.783 76.9109 129.519 75.9517 129.519 74.4086V74.4017C129.519 72.8447 128.776 71.8925 127.601 71.8925C126.461 71.8925 125.662 72.8795 125.662 74.4017V74.4086C125.662 75.9239 126.468 76.9109 127.601 76.9109ZM135.337 78.2037C133.189 78.2037 131.89 76.7371 131.89 74.4295V74.4225C131.89 72.1357 133.21 70.6066 135.261 70.6066C137.311 70.6066 138.569 72.0801 138.569 74.2766V74.784H133.391C133.419 76.1671 134.176 76.9734 135.372 76.9734C136.262 76.9734 136.852 76.5147 137.04 75.9656L137.061 75.91H138.486L138.472 75.9864C138.236 77.1472 137.11 78.2037 135.337 78.2037ZM135.268 71.8369C134.295 71.8369 133.544 72.4972 133.412 73.7205H137.082C136.957 72.4555 136.248 71.8369 135.268 71.8369ZM141.885 78.1898C140.425 78.1898 139.445 77.2932 139.445 75.9795V75.9656C139.445 74.6936 140.432 73.9151 142.163 73.8109L144.151 73.6927V73.1436C144.151 72.3373 143.629 71.8508 142.698 71.8508C141.829 71.8508 141.294 72.2608 141.169 72.8447L141.155 72.9073H139.737L139.744 72.8308C139.848 71.5727 140.939 70.6066 142.74 70.6066C144.526 70.6066 145.659 71.5519 145.659 73.0185V78.0577H144.151V76.9039H144.123C143.699 77.6894 142.851 78.1898 141.885 78.1898ZM140.96 75.9447C140.96 76.5842 141.489 76.9873 142.295 76.9873C143.351 76.9873 144.151 76.2714 144.151 75.3192V74.7492L142.364 74.8604C141.461 74.916 140.96 75.3122 140.96 75.9308V75.9447ZM147.202 78.0577V68.0279H148.703V73.8665H148.738L151.671 70.7456H153.437L150.434 73.9012L153.555 78.0577H151.81L149.329 74.8048L148.703 75.4234V78.0577H147.202ZM155.119 69.6196C154.632 69.6196 154.243 69.2303 154.243 68.7577C154.243 68.2781 154.632 67.8889 155.119 67.8889C155.612 67.8889 155.995 68.2781 155.995 68.7577C155.995 69.2303 155.612 69.6196 155.119 69.6196ZM154.368 78.0577V70.7456H155.87V78.0577H154.368ZM157.42 78.0577V70.7456H158.921V71.8508H158.956C159.338 71.107 160.089 70.6066 161.194 70.6066C162.799 70.6066 163.724 71.6422 163.724 73.3243V78.0577H162.216V73.6093C162.216 72.5111 161.701 71.8925 160.659 71.8925C159.602 71.8925 158.921 72.657 158.921 73.797V78.0577H157.42ZM168.381 80.6365C166.504 80.6365 165.316 79.7676 165.093 78.6485L165.086 78.586H166.574L166.601 78.6416C166.803 79.1073 167.436 79.427 168.374 79.427C169.569 79.427 170.23 78.7876 170.23 77.7658V76.7649H170.195C169.778 77.5573 168.944 78.0647 167.894 78.0647C166.059 78.0647 164.85 76.6259 164.85 74.3461V74.3391C164.85 72.0454 166.073 70.6066 167.929 70.6066C168.958 70.6066 169.764 71.1626 170.195 71.9898H170.23V70.7456H171.738V77.8562C171.738 79.5243 170.445 80.6365 168.381 80.6365ZM168.318 76.8414C169.465 76.8414 170.23 75.8752 170.23 74.3669V74.36C170.23 72.8586 169.458 71.8925 168.318 71.8925C167.13 71.8925 166.386 72.8517 166.386 74.36V74.3669C166.386 75.8961 167.13 76.8414 168.318 76.8414ZM178.682 78.2037C177.236 78.2037 176.541 77.592 176.541 76.1324V71.9411H175.491V70.7456H176.541V68.8411H178.077V70.7456H179.446V71.9411H178.077V76.042C178.077 76.7858 178.411 77.0082 179.043 77.0082C179.203 77.0082 179.335 76.9943 179.446 76.9804V78.1411C179.273 78.169 178.988 78.2037 178.682 78.2037ZM183.652 78.2037C181.552 78.2037 180.183 76.751 180.183 74.4017V74.3878C180.183 72.0523 181.566 70.6066 183.645 70.6066C185.73 70.6066 187.12 72.0454 187.12 74.3878V74.4017C187.12 76.758 185.744 78.2037 183.652 78.2037ZM183.659 76.9456C184.833 76.9456 185.584 76.0142 185.584 74.4017V74.3878C185.584 72.7891 184.819 71.8647 183.645 71.8647C182.491 71.8647 181.719 72.7891 181.719 74.3878V74.4017C181.719 76.0212 182.484 76.9456 183.659 76.9456ZM191.353 78.0577V68.0279H197.616V69.3694H192.91V72.5458H197.219V73.8595H192.91V78.0577H191.353ZM198.846 78.0577V68.0279H200.347V78.0577H198.846ZM204.379 78.2037C202.773 78.2037 201.855 77.168 201.855 75.486V70.7456H203.357V75.194C203.357 76.2992 203.871 76.9109 204.914 76.9109C205.97 76.9109 206.651 76.1532 206.651 75.0133V70.7456H208.16V78.0577H206.651V76.9595H206.617C206.234 77.6963 205.491 78.2037 204.379 78.2037ZM210.46 69.6196C209.974 69.6196 209.585 69.2303 209.585 68.7577C209.585 68.2781 209.974 67.8889 210.46 67.8889C210.954 67.8889 211.336 68.2781 211.336 68.7577C211.336 69.2303 210.954 69.6196 210.46 69.6196ZM209.71 78.0577V70.7456H211.211V78.0577H209.71ZM215.493 78.2037C213.63 78.2037 212.434 76.7302 212.434 74.4017V74.3947C212.434 72.0662 213.644 70.6066 215.479 70.6066C216.515 70.6066 217.349 71.1279 217.786 71.9898H217.814V68.0279H219.323V78.0577H217.814V76.8205H217.786C217.349 77.6755 216.542 78.2037 215.493 78.2037ZM215.889 76.9109C217.022 76.9109 217.821 75.9239 217.821 74.4017V74.3947C217.821 72.8795 217.015 71.8925 215.889 71.8925C214.707 71.8925 213.971 72.8517 213.971 74.3947V74.4017C213.971 75.9586 214.7 76.9109 215.889 76.9109ZM223.194 78.0577L226.843 68.0279H228.525L232.167 78.0577H230.534L229.617 75.347H225.752L224.828 78.0577H223.194ZM227.67 69.6891L226.169 74.0958H229.193L227.698 69.6891H227.67ZM233.28 78.0577V68.0279H234.837V78.0577H233.28Z" fill="white"/>
<path d="M326.516 80.9616C321.603 80.9616 317.619 76.9783 317.619 72.0647C317.619 67.1511 321.603 63.1678 326.516 63.1678C331.43 63.1678 335.413 67.1511 335.413 72.0647C335.413 76.9783 331.43 80.9616 326.516 80.9616ZM327.406 72.0647V67.6162H325.627V73.8441H330.965V72.0647H327.406Z" fill="white"/>
</g>
<path d="M117.128 577.252C117.128 579.963 115.551 581.568 112.875 581.568C110.073 581.568 108.28 579.525 108.28 576.334C108.28 573.2 110.066 571.205 112.875 571.205C115.043 571.205 116.691 572.491 117.066 574.485H115.752C115.335 573.13 114.286 572.359 112.875 572.359C110.81 572.359 109.566 573.846 109.566 576.327C109.566 578.851 110.831 580.414 112.875 580.414C114.654 580.414 115.877 579.261 115.877 577.579V577.398H113.048V576.3H117.128V577.252ZM121.542 581.527C119.54 581.527 118.192 580.088 118.192 577.787C118.192 575.479 119.54 574.048 121.542 574.048C123.537 574.048 124.885 575.479 124.885 577.787C124.885 580.088 123.537 581.527 121.542 581.527ZM121.542 580.463C122.821 580.463 123.655 579.49 123.655 577.787C123.655 576.084 122.821 575.111 121.542 575.111C120.263 575.111 119.422 576.084 119.422 577.787C119.422 579.49 120.263 580.463 121.542 580.463ZM131.412 580.498C132.552 580.498 133.428 579.699 133.428 578.656V578.065L131.496 578.183C130.522 578.246 129.966 578.677 129.966 579.358C129.966 580.046 130.543 580.498 131.412 580.498ZM131.141 581.527C129.702 581.527 128.736 580.658 128.736 579.358C128.736 578.121 129.688 577.342 131.357 577.245L133.428 577.127V576.522C133.428 575.639 132.844 575.111 131.843 575.111C130.912 575.111 130.328 575.549 130.175 576.258H129.007C129.091 575.007 130.161 574.048 131.871 574.048C133.567 574.048 134.637 574.965 134.637 576.404V581.401H133.49V580.157H133.463C133.032 580.984 132.114 581.527 131.141 581.527ZM136.236 581.401V571.372H137.445V575.327H137.473C137.876 574.52 138.669 574.048 139.767 574.048C141.352 574.048 142.311 575.118 142.311 576.731V581.401H141.101V576.953C141.101 575.806 140.524 575.118 139.392 575.118C138.189 575.118 137.445 575.938 137.445 577.189V581.401H136.236ZM146.745 575.097C145.612 575.097 144.82 575.966 144.744 577.168H148.671C148.643 575.959 147.885 575.097 146.745 575.097ZM148.643 579.33H149.831C149.623 580.595 148.4 581.527 146.822 581.527C144.751 581.527 143.492 580.088 143.492 577.815C143.492 575.57 144.771 574.048 146.766 574.048C148.719 574.048 149.922 575.466 149.922 577.655V578.114H144.737V578.183C144.737 579.566 145.55 580.477 146.85 580.477C147.767 580.477 148.441 580.011 148.643 579.33ZM153.529 580.498C154.669 580.498 155.545 579.699 155.545 578.656V578.065L153.613 578.183C152.64 578.246 152.084 578.677 152.084 579.358C152.084 580.046 152.66 580.498 153.529 580.498ZM153.258 581.527C151.819 581.527 150.853 580.658 150.853 579.358C150.853 578.121 151.805 577.342 153.474 577.245L155.545 577.127V576.522C155.545 575.639 154.961 575.111 153.96 575.111C153.029 575.111 152.445 575.549 152.292 576.258H151.124C151.208 575.007 152.278 574.048 153.988 574.048C155.684 574.048 156.754 574.965 156.754 576.404V581.401H155.608V580.157H155.58C155.149 580.984 154.231 581.527 153.258 581.527ZM161.029 581.527C159.187 581.527 157.936 580.053 157.936 577.787C157.936 575.521 159.18 574.048 161.001 574.048C162.037 574.048 162.871 574.555 163.302 575.347H163.33V571.372H164.539V581.401H163.385V580.178H163.365C162.899 581.012 162.072 581.527 161.029 581.527ZM161.258 575.111C159.98 575.111 159.173 576.154 159.173 577.787C159.173 579.427 159.98 580.463 161.258 580.463C162.503 580.463 163.337 579.407 163.337 577.787C163.337 576.174 162.503 575.111 161.258 575.111ZM167 583.396H165.992L166.666 579.858H167.952L167 583.396ZM173.45 581.401H172.199V571.372H173.45V581.401ZM176.321 574.909H175.313L175.987 571.372H177.273L176.321 574.909ZM178.461 581.401V574.173H179.601V575.327H179.629C179.97 574.562 180.707 574.048 181.68 574.048C182.667 574.048 183.396 574.548 183.709 575.424H183.737C184.14 574.562 184.988 574.048 186.003 574.048C187.435 574.048 188.359 574.979 188.359 576.411V581.401H187.15V576.689C187.15 575.702 186.601 575.118 185.648 575.118C184.689 575.118 184.015 575.827 184.015 576.807V581.401H182.806V576.557C182.806 575.688 182.222 575.118 181.325 575.118C180.366 575.118 179.671 575.869 179.671 576.87V581.401H178.461ZM192.884 581.401V571.372H194.094V581.401H192.884ZM195.79 581.401V574.173H196.999V581.401H195.79ZM196.394 572.956C195.984 572.956 195.644 572.616 195.644 572.206C195.644 571.789 195.984 571.455 196.394 571.455C196.811 571.455 197.152 571.789 197.152 572.206C197.152 572.616 196.811 572.956 196.394 572.956ZM198.507 576.168C198.507 574.93 199.612 574.048 201.204 574.048C202.699 574.048 203.797 574.937 203.852 576.161H202.699C202.615 575.466 202.052 575.035 201.162 575.035C200.28 575.035 199.696 575.472 199.696 576.105C199.696 576.605 200.078 576.939 200.898 577.148L202.017 577.419C203.477 577.787 204.005 578.315 204.005 579.379C204.005 580.637 202.817 581.527 201.128 581.527C199.543 581.527 198.438 580.665 198.313 579.386H199.522C199.654 580.136 200.224 580.54 201.204 580.54C202.184 580.54 202.789 580.122 202.789 579.469C202.789 578.955 202.49 578.677 201.677 578.461L200.405 578.135C199.133 577.808 198.507 577.155 198.507 576.168ZM205.653 572.428H206.862V574.173H208.266V575.167H206.862V579.462C206.862 580.122 207.14 580.421 207.759 580.421C207.898 580.421 208.176 580.401 208.259 580.387V581.401C208.113 581.436 207.78 581.457 207.495 581.457C206.167 581.457 205.653 580.915 205.653 579.525V575.167H204.575V574.173H205.653V572.428ZM212.249 575.097C211.116 575.097 210.323 575.966 210.247 577.168H214.174C214.146 575.959 213.389 575.097 212.249 575.097ZM214.146 579.33H215.335C215.126 580.595 213.903 581.527 212.325 581.527C210.254 581.527 208.996 580.088 208.996 577.815C208.996 575.57 210.275 574.048 212.27 574.048C214.223 574.048 215.425 575.466 215.425 577.655V578.114H210.24V578.183C210.24 579.566 211.053 580.477 212.353 580.477C213.271 580.477 213.945 580.011 214.146 579.33ZM216.649 581.401V574.173H217.789V575.327H217.816C218.219 574.548 218.991 574.048 220.11 574.048C221.695 574.048 222.612 575.069 222.612 576.71V581.401H221.403V576.925C221.403 575.757 220.854 575.118 219.742 575.118C218.602 575.118 217.858 575.924 217.858 577.148V581.401H216.649ZM224.218 581.401V574.173H225.427V581.401H224.218ZM224.823 572.956C224.413 572.956 224.072 572.616 224.072 572.206C224.072 571.789 224.413 571.455 224.823 571.455C225.24 571.455 225.58 571.789 225.58 572.206C225.58 572.616 225.24 572.956 224.823 572.956ZM227.061 581.401V574.173H228.201V575.327H228.229C228.632 574.548 229.403 574.048 230.522 574.048C232.107 574.048 233.024 575.069 233.024 576.71V581.401H231.815V576.925C231.815 575.757 231.266 575.118 230.154 575.118C229.014 575.118 228.27 575.924 228.27 577.148V581.401H227.061ZM237.508 580.394C238.766 580.394 239.607 579.351 239.607 577.759C239.607 576.168 238.766 575.111 237.508 575.111C236.264 575.111 235.45 576.14 235.45 577.759C235.45 579.379 236.264 580.394 237.508 580.394ZM237.549 584.126C235.958 584.126 234.7 583.229 234.498 581.999H235.742C235.979 582.66 236.694 583.097 237.598 583.097C238.849 583.097 239.607 582.375 239.607 581.297V580.157H239.579C239.134 580.943 238.279 581.457 237.264 581.457C235.422 581.457 234.213 580.004 234.213 577.759C234.213 575.493 235.422 574.048 237.292 574.048C238.314 574.048 239.162 574.548 239.642 575.389H239.662V574.173H240.816V581.255C240.816 582.979 239.544 584.126 237.549 584.126Z" fill="white" fill-opacity="0.4"/>
</g>
<defs>
<filter id="filter0_b_6104_3218" x="-44.4845" y="-44.4845" width="438.617" height="178.828" filterUnits="userSpaceOnUse" color-interpolation-filters="sRGB">
<feFlood flood-opacity="0" result="BackgroundImageFix"/>
<feGaussianBlur in="BackgroundImageFix" stdDeviation="22.2423"/>
<feComposite in2="SourceAlpha" operator="in" result="effect1_backgroundBlur_6104_3218"/>
<feBlend mode="normal" in="SourceGraphic" in2="effect1_backgroundBlur_6104_3218" result="shape"/>
</filter>
<clipPath id="clip0_6104_3218">
<path d="M0 28.4701C0 12.7465 12.7465 0 28.4701 0H321.178C336.902 0 349.648 12.7465 349.648 28.4701V729.546C349.648 745.27 336.902 758.016 321.178 758.016H28.4701C12.7465 758.016 0 745.27 0 729.546V28.4701Z" fill="white"/>
</clipPath>
</defs>
</svg>
