<svg width="137" height="52" viewBox="0 0 137 52" fill="none" xmlns="http://www.w3.org/2000/svg">
<g filter="url(#filter0_b_2_4351)">
<path d="M-1.36677e-08 25.5769C-6.11922e-09 11.4512 11.4512 6.11922e-09 25.5769 1.36677e-08L110.731 5.91717e-08C124.857 6.67202e-08 136.308 11.4512 136.308 25.5769C136.308 39.7027 124.857 51.1538 110.731 51.1538L25.5769 51.1538C11.4512 51.1538 -2.12161e-08 39.7027 -1.36677e-08 25.5769Z" fill="#262626" fill-opacity="0.1"/>
<path d="M0.5 25.5769C0.5 11.7273 11.7273 0.5 25.5769 0.5L110.731 0.5C124.58 0.5 135.808 11.7273 135.808 25.5769C135.808 39.4265 124.58 50.6538 110.731 50.6538L25.5769 50.6538C11.7273 50.6538 0.5 39.4265 0.5 25.5769Z" stroke="white" stroke-opacity="0.1"/>
<path d="M33.1521 33.0771L31.3131 33.0771L31.3131 19.99L26.6647 19.99L26.6647 18.335L37.8005 18.335L37.8005 19.99L33.1521 19.99L33.1521 33.0771ZM37.116 33.0771L37.116 22.4521L38.7915 22.4521L38.7915 24.1889L38.8324 24.1889C39.1797 23.014 40.1605 22.2683 41.4069 22.2683C41.7134 22.2683 41.979 22.3193 42.122 22.3398L42.122 24.0663C41.979 24.0152 41.601 23.9642 41.1719 23.9642C39.7927 23.9642 38.8937 24.9552 38.8937 26.457L38.8937 33.0771L37.116 33.0771ZM43.6647 33.0771L43.6647 22.4521L45.4423 22.4521L45.4423 33.0771L43.6647 33.0771ZM44.5535 20.6643C43.9507 20.6643 43.4501 20.1637 43.4501 19.5609C43.4501 18.9479 43.9507 18.4576 44.5535 18.4576C45.1665 18.4576 45.6671 18.9479 45.6671 19.5609C45.6671 20.1637 45.1665 20.6643 44.5535 20.6643ZM53.0024 22.2683C55.7098 22.2683 57.5487 24.4341 57.5487 27.7646C57.5487 31.0952 55.72 33.261 53.0433 33.261C51.5211 33.261 50.2951 32.5152 49.6617 31.3506L49.6208 31.3506L49.6208 36.6222L47.8432 36.6222L47.8432 22.4521L49.5289 22.4521L49.5289 24.2502L49.5697 24.2502C50.2236 23.0549 51.4598 22.2683 53.0024 22.2683ZM52.6551 31.6979C54.5451 31.6979 55.7302 30.1757 55.7302 27.7646C55.7302 25.3638 54.5451 23.8314 52.6551 23.8314C50.8366 23.8314 49.6106 25.4047 49.6106 27.7646C49.6106 30.1348 50.8366 31.6979 52.6551 31.6979ZM63.7296 33.0771L63.7296 22.4521L65.5072 22.4521L65.5072 33.0771L63.7296 33.0771ZM64.6184 20.6643C64.0156 20.6643 63.515 20.1637 63.515 19.5609C63.515 18.9479 64.0156 18.4576 64.6184 18.4576C65.2314 18.4576 65.732 18.9479 65.732 19.5609C65.732 20.1637 65.2314 20.6643 64.6184 20.6643ZM71.9333 33.261C69.226 33.261 67.387 31.0952 67.387 27.7646C67.387 24.4341 69.2158 22.2683 71.8924 22.2683C73.4147 22.2683 74.6406 23.014 75.2741 24.1787L75.3149 24.1787L75.3149 18.335L77.0926 18.335L77.0926 33.0771L75.3967 33.0771L75.3967 31.2791L75.366 31.2791C74.6815 32.505 73.4658 33.261 71.9333 33.261ZM72.2705 23.8314C70.3906 23.8314 69.2056 25.3638 69.2056 27.7646C69.2056 30.1757 70.3906 31.6979 72.2705 31.6979C74.0992 31.6979 75.3251 30.1451 75.3251 27.7646C75.3251 25.3945 74.0992 23.8314 72.2705 23.8314ZM83.7536 23.8109C82.0884 23.8109 80.9237 25.088 80.8113 26.8554L86.5836 26.8554C86.5427 25.0777 85.4291 23.8109 83.7536 23.8109ZM86.5427 30.0327L88.2897 30.0327C87.9832 31.8921 86.1851 33.261 83.866 33.261C80.8215 33.261 78.9724 31.1463 78.9724 27.8055C78.9724 24.5056 80.8522 22.2683 83.7843 22.2683C86.6551 22.2683 88.4225 24.3524 88.4225 27.5705L88.4225 28.2448L80.8011 28.2448L80.8011 28.347C80.8011 30.38 81.9964 31.7184 83.9069 31.7184C85.2554 31.7184 86.2464 31.0339 86.5427 30.0327ZM93.7248 31.749C95.4003 31.749 96.6875 30.5741 96.6875 29.0417L96.6875 28.1733L93.8474 28.347C92.4171 28.4389 91.5998 29.0723 91.5998 30.0735C91.5998 31.085 92.4477 31.749 93.7248 31.749ZM93.3263 33.261C91.2116 33.261 89.7915 31.984 89.7915 30.0735C89.7915 28.255 91.1911 27.1108 93.6431 26.9678L96.6875 26.7941L96.6875 25.9053C96.6875 24.6078 95.8293 23.8314 94.3582 23.8314C92.9892 23.8314 92.131 24.475 91.9063 25.5171L90.1899 25.5171C90.3125 23.6781 91.8858 22.2683 94.3991 22.2683C96.8918 22.2683 98.4652 23.6168 98.4652 25.7316L98.4652 33.0771L96.7795 33.0771L96.7795 31.2484L96.7386 31.2484C96.1052 32.4642 94.7566 33.261 93.3263 33.261ZM100.539 25.3842C100.539 23.5657 102.163 22.2683 104.503 22.2683C106.7 22.2683 108.314 23.5759 108.395 25.374L106.7 25.374C106.577 24.3524 105.749 23.719 104.442 23.719C103.144 23.719 102.286 24.3626 102.286 25.2923C102.286 26.0279 102.848 26.5183 104.054 26.8247L105.698 27.2232C107.844 27.7646 108.62 28.5411 108.62 30.1042C108.62 31.9534 106.873 33.261 104.391 33.261C102.061 33.261 100.437 31.9942 100.253 30.1144L102.031 30.1144C102.225 31.2178 103.063 31.8103 104.503 31.8103C105.944 31.8103 106.832 31.1973 106.832 30.237C106.832 29.481 106.393 29.0723 105.198 28.7556L103.328 28.2755C101.459 27.7953 100.539 26.835 100.539 25.3842Z" fill="white"/>
</g>
<defs>
<filter id="filter0_b_2_4351" x="-26.1538" y="-26.1538" width="188.615" height="103.462" filterUnits="userSpaceOnUse" color-interpolation-filters="sRGB">
<feFlood flood-opacity="0" result="BackgroundImageFix"/>
<feGaussianBlur in="BackgroundImageFix" stdDeviation="13.0769"/>
<feComposite in2="SourceAlpha" operator="in" result="effect1_backgroundBlur_2_4351"/>
<feBlend mode="normal" in="SourceGraphic" in2="effect1_backgroundBlur_2_4351" result="shape"/>
</filter>
</defs>
</svg>
